{
	"asset":{
		"generator":"Khronos glTF Blender I/O v4.3.47",
		"version":"2.0"
	},
	"extensionsUsed":[
		"KHR_materials_specular"
	],
	"scene":0,
	"scenes":[
		{
			"name":"Scene",
			"nodes":[
				0,
				1
			]
		}
	],
	"nodes":[
		{
			"mesh":0,
			"name":"Forest001",
			"rotation":[
				0.7071068286895752,
				0,
				0,
				0.7071068286895752
			]
		},
		{
			"mesh":1,
			"name":"Object005",
			"rotation":[
				0.7071068286895752,
				0,
				0,
				0.7071068286895752
			]
		}
	],
	"materials":[
		{
			"doubleSided":true,
			"extensions":{
				"KHR_materials_specular":{
					"specularFactor":0
				}
			},
			"name":"wire_027177088",
			"pbrMetallicRoughness":{
				"baseColorFactor":[
					0.800000011920929,
					0.800000011920929,
					0.800000011920929,
					1
				],
				"metallicFactor":0
			}
		},
		{
			"doubleSided":true,
			"extensions":{
				"KHR_materials_specular":{
					"specularFactor":0
				}
			},
			"name":"wire_141007058",
			"pbrMetallicRoughness":{
				"baseColorFactor":[
					0.800000011920929,
					0.800000011920929,
					0.800000011920929,
					1
				],
				"metallicFactor":0
			}
		}
	],
	"meshes":[
		{
			"name":"Forest001",
			"primitives":[
				{
					"attributes":{
						"POSITION":0,
						"NORMAL":1,
						"TEXCOORD_0":2
					},
					"indices":3,
					"material":0
				}
			]
		},
		{
			"name":"Object005",
			"primitives":[
				{
					"attributes":{
						"POSITION":4,
						"NORMAL":5,
						"TEXCOORD_0":6
					},
					"indices":7,
					"material":1
				}
			]
		}
	],
	"accessors":[
		{
			"bufferView":0,
			"componentType":5126,
			"count":34496,
			"max":[
				33.20119857788086,
				101.77950286865234,
				0
			],
			"min":[
				-202.28680419921875,
				-146.7384033203125,
				-6.9141998291015625
			],
			"type":"VEC3"
		},
		{
			"bufferView":1,
			"componentType":5126,
			"count":34496,
			"type":"VEC3"
		},
		{
			"bufferView":2,
			"componentType":5126,
			"count":34496,
			"type":"VEC2"
		},
		{
			"bufferView":3,
			"componentType":5123,
			"count":140448,
			"type":"SCALAR"
		},
		{
			"bufferView":4,
			"componentType":5126,
			"count":125037,
			"max":[
				79.42620086669922,
				272.9468994140625,
				0.7828999757766724
			],
			"min":[
				-221.95919799804688,
				-224.81190490722656,
				-48.09450149536133
			],
			"type":"VEC3"
		},
		{
			"bufferView":5,
			"componentType":5126,
			"count":125037,
			"type":"VEC3"
		},
		{
			"bufferView":6,
			"componentType":5126,
			"count":125037,
			"type":"VEC2"
		},
		{
			"bufferView":7,
			"componentType":5125,
			"count":223824,
			"type":"SCALAR"
		}
	],
	"bufferViews":[
		{
			"buffer":0,
			"byteLength":413952,
			"byteOffset":0,
			"target":34962
		},
		{
			"buffer":0,
			"byteLength":413952,
			"byteOffset":413952,
			"target":34962
		},
		{
			"buffer":0,
			"byteLength":275968,
			"byteOffset":827904,
			"target":34962
		},
		{
			"buffer":0,
			"byteLength":280896,
			"byteOffset":1103872,
			"target":34963
		},
		{
			"buffer":0,
			"byteLength":1500444,
			"byteOffset":1384768,
			"target":34962
		},
		{
			"buffer":0,
			"byteLength":1500444,
			"byteOffset":2885212,
			"target":34962
		},
		{
			"buffer":0,
			"byteLength":1000296,
			"byteOffset":4385656,
			"target":34962
		},
		{
			"buffer":0,
			"byteLength":895296,
			"byteOffset":5385952,
			"target":34963
		}
	],
	"buffers":[
		{
			"byteLength":6281248,
			"uri":"louvre.bin"
		}
	]
}
