{
	"asset":{
		"generator":"Khronos glTF Blender I/O v4.3.47",
		"version":"2.0"
	},
	"extensionsUsed":[
		"KHR_materials_specular"
	],
	"scene":0,
	"scenes":[
		{
			"name":"Scene",
			"nodes":[
				0,
				1,
				2,
				3
			]
		}
	],
	"nodes":[
		{
			"mesh":0,
			"name":"Forest001",
			"rotation":[
				0.70710688829422,
				0,
				0,
				0.7071066498756409
			]
		},
		{
			"mesh":1,
			"name":"Object005",
			"rotation":[
				0.70710688829422,
				0,
				0,
				0.7071066498756409
			]
		},
		{
			"mesh":2,
			"name":"Pyramid",
			"rotation":[
				0.70710688829422,
				0,
				0,
				0.7071066498756409
			]
		},
		{
			"mesh":3,
			"name":"Building 1",
			"rotation":[
				0.70710688829422,
				0,
				0,
				0.7071066498756409
			]
		}
	],
	"materials":[
		{
			"doubleSided":true,
			"extensions":{
				"KHR_materials_specular":{
					"specularFactor":0
				}
			},
			"name":"wire_027177088",
			"pbrMetallicRoughness":{
				"baseColorFactor":[
					0.800000011920929,
					0.800000011920929,
					0.800000011920929,
					1
				],
				"metallicFactor":0
			}
		},
		{
			"doubleSided":true,
			"extensions":{
				"KHR_materials_specular":{
					"specularFactor":0
				}
			},
			"name":"wire_141007058",
			"pbrMetallicRoughness":{
				"baseColorFactor":[
					0.800000011920929,
					0.800000011920929,
					0.800000011920929,
					1
				],
				"metallicFactor":0
			}
		}
	],
	"meshes":[
		{
			"name":"Forest001",
			"primitives":[
				{
					"attributes":{
						"POSITION":0,
						"NORMAL":1,
						"TEXCOORD_0":2
					},
					"indices":3,
					"material":0
				}
			]
		},
		{
			"name":"Object005",
			"primitives":[
				{
					"attributes":{
						"POSITION":4,
						"NORMAL":5,
						"TEXCOORD_0":6
					},
					"indices":7,
					"material":1
				}
			]
		},
		{
			"name":"Object005.001",
			"primitives":[
				{
					"attributes":{
						"POSITION":8,
						"NORMAL":9,
						"TEXCOORD_0":10
					},
					"indices":11,
					"material":1
				}
			]
		},
		{
			"name":"Object005.002",
			"primitives":[
				{
					"attributes":{
						"POSITION":12,
						"NORMAL":13,
						"TEXCOORD_0":14
					},
					"indices":15,
					"material":1
				}
			]
		}
	],
	"accessors":[
		{
			"bufferView":0,
			"componentType":5126,
			"count":34724,
			"max":[
				33.20119857788086,
				101.77950286865234,
				0
			],
			"min":[
				-202.28680419921875,
				-146.7384033203125,
				-6.9141998291015625
			],
			"type":"VEC3"
		},
		{
			"bufferView":1,
			"componentType":5126,
			"count":34724,
			"type":"VEC3"
		},
		{
			"bufferView":2,
			"componentType":5126,
			"count":34724,
			"type":"VEC2"
		},
		{
			"bufferView":3,
			"componentType":5123,
			"count":140448,
			"type":"SCALAR"
		},
		{
			"bufferView":4,
			"componentType":5126,
			"count":140376,
			"max":[
				79.42620086669922,
				272.9468994140625,
				0.7828999757766724
			],
			"min":[
				-221.95919799804688,
				-224.81190490722656,
				-48.09450149536133
			],
			"type":"VEC3"
		},
		{
			"bufferView":5,
			"componentType":5126,
			"count":140376,
			"type":"VEC3"
		},
		{
			"bufferView":6,
			"componentType":5126,
			"count":140376,
			"type":"VEC2"
		},
		{
			"bufferView":7,
			"componentType":5125,
			"count":200139,
			"type":"SCALAR"
		},
		{
			"bufferView":8,
			"componentType":5126,
			"count":4253,
			"max":[
				-63.15169906616211,
				-5.642899990081787,
				-0.04039999842643738
			],
			"min":[
				-97.408203125,
				-41.21110153198242,
				-21.109399795532227
			],
			"type":"VEC3"
		},
		{
			"bufferView":9,
			"componentType":5126,
			"count":4253,
			"type":"VEC3"
		},
		{
			"bufferView":10,
			"componentType":5126,
			"count":4253,
			"type":"VEC2"
		},
		{
			"bufferView":11,
			"componentType":5123,
			"count":4956,
			"type":"SCALAR"
		},
		{
			"bufferView":12,
			"componentType":5126,
			"count":13820,
			"max":[
				65.72979736328125,
				238.33140563964844,
				0.0020000000949949026
			],
			"min":[
				-23.33060073852539,
				-159.92930603027344,
				-46.309600830078125
			],
			"type":"VEC3"
		},
		{
			"bufferView":13,
			"componentType":5126,
			"count":13820,
			"type":"VEC3"
		},
		{
			"bufferView":14,
			"componentType":5126,
			"count":13820,
			"type":"VEC2"
		},
		{
			"bufferView":15,
			"componentType":5123,
			"count":18729,
			"type":"SCALAR"
		}
	],
	"bufferViews":[
		{
			"buffer":0,
			"byteLength":416688,
			"byteOffset":0,
			"target":34962
		},
		{
			"buffer":0,
			"byteLength":416688,
			"byteOffset":416688,
			"target":34962
		},
		{
			"buffer":0,
			"byteLength":277792,
			"byteOffset":833376,
			"target":34962
		},
		{
			"buffer":0,
			"byteLength":280896,
			"byteOffset":1111168,
			"target":34963
		},
		{
			"buffer":0,
			"byteLength":1684512,
			"byteOffset":1392064,
			"target":34962
		},
		{
			"buffer":0,
			"byteLength":1684512,
			"byteOffset":3076576,
			"target":34962
		},
		{
			"buffer":0,
			"byteLength":1123008,
			"byteOffset":4761088,
			"target":34962
		},
		{
			"buffer":0,
			"byteLength":800556,
			"byteOffset":5884096,
			"target":34963
		},
		{
			"buffer":0,
			"byteLength":51036,
			"byteOffset":6684652,
			"target":34962
		},
		{
			"buffer":0,
			"byteLength":51036,
			"byteOffset":6735688,
			"target":34962
		},
		{
			"buffer":0,
			"byteLength":34024,
			"byteOffset":6786724,
			"target":34962
		},
		{
			"buffer":0,
			"byteLength":9912,
			"byteOffset":6820748,
			"target":34963
		},
		{
			"buffer":0,
			"byteLength":165840,
			"byteOffset":6830660,
			"target":34962
		},
		{
			"buffer":0,
			"byteLength":165840,
			"byteOffset":6996500,
			"target":34962
		},
		{
			"buffer":0,
			"byteLength":110560,
			"byteOffset":7162340,
			"target":34962
		},
		{
			"buffer":0,
			"byteLength":37458,
			"byteOffset":7272900,
			"target":34963
		}
	],
	"buffers":[
		{
			"byteLength":7310360,
			"uri":"louvre2.bin"
		}
	]
}
